<?xml version="1.0" encoding="UTF-8" standalone="no"?>
<svg width="38px" height="63px" viewBox="0 0 38 63" version="1.1" xmlns="http://www.w3.org/2000/svg" xmlns:xlink="http://www.w3.org/1999/xlink">
    <!-- Generator: Sketch 3.8.1 (29687) - http://www.bohemiancoding.com/sketch -->
    <title>v</title>
    <desc>Created with Sketch.</desc>
    <defs></defs>
    <g id="Page-1" stroke="none" stroke-width="1" fill="none" fill-rule="evenodd">
        <path d="M23.6875,50.84375 L23.6875,26.5625 L21.9375,28.03125 L21.9375,50.9375 C21.604165,54.9583534 23.4270634,58.8853975 27.40625,62.71875 C24.8020703,59.0103981 23.5624994,55.0521044 23.6875,50.84375 L23.6875,50.84375 Z M8.37234043,23.4401596 L8.37234043,40.9567819 C6.6170125,40.0547384 4.04500808,40.6520285 0.65625,42.7486702 C3.8743512,42.21232 6.43416602,42.7974205 8.33577128,44.5039894 L21.2446809,58.2174202 L21.28125,47.612367 L15.4667553,41.3224734 L15.4301862,25.3417553 L19.9281915,20.587766 C14.2721348,19.8563793 11.4075802,17.101531 11.3344415,12.3231383 C11.2613028,7.54474561 13.1385004,3.65626499 16.9660904,0.657579787 C9.7985014,3.63188544 5.69670288,7.53255565 4.66057181,12.3597074 C3.62444074,17.1868592 4.86168457,20.8803063 8.37234043,23.4401596 Z M18.375,25 L21.15625,24.03125 C22.48959,25.2604228 23.6458284,25.9791656 24.625,26.1875 L24.625,50.8125 C24.6041666,53.2500122 25.5208241,56.7499772 27.375,61.3125 C26.4374953,58.2916516 27.5520675,52.9583716 30.71875,45.3125 L30.6875,30.53125 L30.71875,26.0625 C32.0937569,25.5208306 34.3229012,22.8646072 37.40625,18.09375 C34.3229012,20.5729291 31.651053,21.6666681 29.390625,21.375 C27.130197,21.0833319 25.4166725,19.6666794 24.25,17.125 L18.375,25 Z" id="v" fill="#006B77"></path>
    </g>
</svg>